<?xml version="1.0" encoding="UTF-8"?>
<svg id="Layer_1" xmlns="http://www.w3.org/2000/svg" xmlns:xlink="http://www.w3.org/1999/xlink" version="1.1" viewBox="0 0 500 500">
  <!-- Generator: Adobe Illustrator 29.3.1, SVG Export Plug-In . SVG Version: 2.1.0 Build 151)  -->
  <defs>
    <style>
      .st0, .st1, .st2, .st3, .st4, .st5, .st6, .st7, .st8, .st9, .st10, .st11, .st12 {
        stroke: #362d0c;
      }

      .st0, .st1, .st13 {
        fill: #362d0c;
      }

      .st0, .st2, .st4, .st5, .st6, .st8, .st9, .st10, .st11 {
        stroke-linecap: round;
        stroke-linejoin: round;
      }

      .st1, .st3, .st7, .st12 {
        stroke-miterlimit: 10;
      }

      .st2, .st14 {
        fill: #fff;
      }

      .st3, .st15, .st9 {
        fill: #e18128;
      }

      .st4 {
        fill: #42617b;
      }

      .st5 {
        fill: #5582a6;
      }

      .st6 {
        fill: #527a9a;
      }

      .st7, .st10, .st11, .st12 {
        fill: none;
      }

      .st7, .st11 {
        stroke-width: .5px;
      }

      .st8 {
        fill: #2f4557;
      }

      .st12 {
        stroke-width: 2px;
      }

      .st14 {
        isolation: isolate;
        opacity: .7;
      }
    </style>
  </defs>
  <g id="Background_Simple">
    <g>
      <path class="st15" d="M461,208.2S397,52,280,21.9s-166.1,62-184,126c-17.9,63.9-84,148.6-78,206.7,5.7,55.3,54.1,81.4,99.4,92.6,57.5,14.3,122.8,15.3,180.5,3.5,13.7-2.8,27.2-6.6,40.6-11,27.1-8.8,53.7-15.7,81.2-23,52.2-13.9,72.9-70,67-123.7-3.3-30.2-14.4-57.2-25.7-84.7Z"/>
      <path class="st14" d="M461,208.2S397,52,280,21.9s-166.1,62-184,126c-17.9,63.9-84,148.6-78,206.7,5.7,55.3,54.1,81.4,99.4,92.6,57.5,14.3,122.8,15.3,180.5,3.5,13.7-2.8,27.2-6.6,40.6-11,27.1-8.8,53.7-15.7,81.2-23,52.2-13.9,72.9-70,67-123.7-3.3-30.2-14.4-57.2-25.7-84.7Z"/>
    </g>
  </g>
  <g id="Window">
    <g>
      <rect class="st10" x="240.3" y="37.2" width="185.5" height="256.8"/>
      <line class="st10" x1="333" y1="37.4" x2="333" y2="295"/>
      <line class="st10" x1="425.9" y1="166.2" x2="240.1" y2="166.2"/>
      <line class="st10" x1="425.9" y1="101.7" x2="240.1" y2="101.7"/>
      <line class="st10" x1="425.9" y1="230.7" x2="240.1" y2="230.7"/>
      <g>
        <line class="st10" x1="392.1" y1="131.4" x2="374" y2="148.8"/>
        <line class="st10" x1="419" y1="105.6" x2="397.4" y2="126.3"/>
        <line class="st10" x1="372.7" y1="140.5" x2="367" y2="146"/>
        <line class="st10" x1="397.4" y1="116.8" x2="376.7" y2="136.7"/>
      </g>
      <g>
        <line class="st10" x1="291.8" y1="72.6" x2="273.7" y2="90"/>
        <line class="st10" x1="318.7" y1="46.8" x2="297.1" y2="67.5"/>
        <line class="st10" x1="272.4" y1="81.7" x2="266.6" y2="87.2"/>
        <line class="st10" x1="297" y1="58" x2="276.3" y2="77.9"/>
      </g>
      <g>
        <line class="st10" x1="387.8" y1="199.8" x2="369.7" y2="217.1"/>
        <line class="st10" x1="414.7" y1="173.9" x2="393.1" y2="194.7"/>
        <line class="st10" x1="368.4" y1="208.9" x2="362.6" y2="214.4"/>
        <line class="st10" x1="393" y1="185.1" x2="372.3" y2="205"/>
      </g>
    </g>
  </g>
  <g id="Plants_2">
    <g>
      <g>
        <path class="st9" d="M395.9,269.8l-.8-6.7s-3.5.2-4.9-2.9c-.8-1.9-1.7-5.7-.4-7.5,1.7-2.5,5.3-2.2,6.4.9.9,2.7,1.4,3.9,1.4,3.9-.2-3.9-3.2-19.8,5.7-17.4,3.6,1,4.6,4.5,4.8,7.2.2,2.8-.2,9.9-.2,9.9,0,0,2.4.3,2.6-3.7.2-4,4-5.8,5.7-3.9s2.5,8.6.6,10.7c-1.9,2.1-7.8,2.8-7.8,2.8l.4,6.7h-13.5Z"/>
        <path class="st11" d="M401.1,241.2s-1.5,1.3-1.1,5.9c.4,4.6.4,12.7.4,12.7"/>
        <path class="st11" d="M404.9,244.3s1.7-.3,1.2,3.9c-.5,4.2,0,10.4,0,10.4"/>
        <path class="st11" d="M392.3,253.2s-1.7.4-.9,3.2c.8,2.8,1.1,5,2.9,5.4s2.5.4,2.5.4l.3,2.9"/>
        <path class="st11" d="M409.2,261.6s5.5.1,6.6-2.1c1.1-2.3.4-6.2.4-6.2"/>
        <path class="st11" d="M394.6,253.9c0,.3-.2.5-.5.5s-.5-.2-.5-.5.2-.5.5-.5.5.2.5.5Z"/>
        <circle class="st11" cx="395.8" cy="259.3" r=".5"/>
        <circle class="st11" cx="393.4" cy="257.1" r=".5"/>
        <circle class="st11" cx="402.9" cy="251.5" r=".5"/>
        <circle class="st11" cx="398.5" cy="247" r=".5"/>
        <path class="st11" d="M404.9,263.3c0,.3-.2.5-.5.5s-.5-.2-.5-.5.2-.5.5-.5.5.2.5.5Z"/>
        <path class="st11" d="M399.8,262.7c0,.3-.2.5-.5.5s-.5-.2-.5-.5.2-.5.5-.5.5.2.5.5Z"/>
        <circle class="st11" cx="403.7" cy="242.7" r=".5"/>
        <path class="st11" d="M413.7,251.6c0,.3-.2.5-.5.5s-.5-.2-.5-.5.2-.5.5-.5.5.2.5.5Z"/>
        <circle class="st11" cx="412" cy="258" r=".5"/>
        <circle class="st11" cx="403.7" cy="257.8" r=".5"/>
      </g>
      <polygon class="st2" points="414.4 265.5 390.3 265.5 392.7 285.3 412 285.3 414.4 265.5"/>
    </g>
  </g>
  <g id="Plants_1">
    <g>
      <g>
        <line class="st12" x1="55.7" y1="229.1" x2="74.1" y2="405.8"/>
        <g>
          <g>
            <line class="st12" x1="71.1" y1="372" x2="62.8" y2="363.2"/>
            <path class="st3" d="M65.3,365.8s.2-3.9-3.3-7.1c-2.1-1.9-13.4-6.7-14.5-2.7-1.2,4.3,10.4,12.8,17.8,9.8Z"/>
            <line class="st7" x1="65.3" y1="365.8" x2="54.5" y2="359.1"/>
          </g>
          <g>
            <line class="st12" x1="73.2" y1="392.1" x2="64.9" y2="383.3"/>
            <path class="st3" d="M67.4,385.9s.2-3.9-3.3-7.1c-2.1-1.9-13.4-6.7-14.5-2.7-1.2,4.3,10.4,12.8,17.8,9.8Z"/>
            <line class="st7" x1="67.4" y1="385.9" x2="56.6" y2="379.2"/>
          </g>
          <g>
            <line class="st12" x1="66" y1="323" x2="57.6" y2="314.1"/>
            <path class="st3" d="M60.2,316.8s.2-3.9-3.3-7.1c-2.1-1.9-13.4-6.7-14.5-2.7-1.2,4.3,10.4,12.8,17.8,9.8Z"/>
            <line class="st7" x1="60.2" y1="316.8" x2="49.4" y2="310.1"/>
          </g>
          <g>
            <line class="st12" x1="68.1" y1="343.1" x2="59.7" y2="334.2"/>
            <path class="st3" d="M62.3,336.9s.2-3.9-3.3-7.1c-2.1-1.9-13.4-6.7-14.5-2.7-1.2,4.3,10.4,12.8,17.8,9.8Z"/>
            <line class="st7" x1="62.3" y1="336.9" x2="51.5" y2="330.2"/>
          </g>
          <g>
            <line class="st12" x1="62.6" y1="290.3" x2="54.2" y2="281.5"/>
            <path class="st3" d="M56.8,284.1s.2-3.9-3.3-7.1c-2.1-1.9-13.4-6.7-14.5-2.7-1.2,4.3,10.4,12.8,17.8,9.8Z"/>
            <line class="st7" x1="56.8" y1="284.1" x2="46" y2="277.4"/>
          </g>
          <g>
            <line class="st12" x1="59.2" y1="257.5" x2="50.8" y2="248.7"/>
            <path class="st3" d="M53.4,251.3s.2-3.9-3.3-7.1c-2.1-1.9-13.4-6.7-14.5-2.7-1.2,4.3,10.4,12.8,17.8,9.8Z"/>
            <line class="st7" x1="53.4" y1="251.3" x2="42.6" y2="244.6"/>
          </g>
          <g>
            <line class="st12" x1="69.7" y1="360.1" x2="76.1" y2="349.7"/>
            <path class="st3" d="M74.1,352.9s-1-3.8,1.8-7.6c1.7-2.3,11.8-9.3,13.6-5.6,2,4-7.5,14.7-15.4,13.3Z"/>
            <line class="st7" x1="74.1" y1="352.9" x2="83.8" y2="343.6"/>
          </g>
          <g>
            <line class="st12" x1="64.2" y1="307.2" x2="70.6" y2="296.8"/>
            <path class="st3" d="M68.6,300s-1-3.8,1.8-7.6c1.7-2.3,11.8-9.3,13.6-5.6,2,4-7.5,14.7-15.4,13.3Z"/>
            <line class="st7" x1="68.6" y1="300" x2="78.3" y2="290.7"/>
          </g>
          <g>
            <line class="st12" x1="61.8" y1="284" x2="68.1" y2="273.6"/>
            <path class="st3" d="M66.2,276.7s-1-3.8,1.8-7.6c1.7-2.3,11.8-9.3,13.6-5.6,2,4-7.5,14.7-15.4,13.3Z"/>
            <line class="st7" x1="66.2" y1="276.7" x2="75.9" y2="267.5"/>
          </g>
          <g>
            <line class="st12" x1="58.2" y1="249.9" x2="64.6" y2="239.5"/>
            <path class="st3" d="M62.6,242.6s-1-3.8,1.8-7.6c1.7-2.3,11.8-9.3,13.6-5.6,2,4-7.5,14.7-15.4,13.3Z"/>
            <line class="st7" x1="62.6" y1="242.6" x2="72.3" y2="233.4"/>
            <path class="st3" d="M55.5,228.1s-1-3.8,1.8-7.6c1.7-2.3,11.8-9.3,13.6-5.6,2,4-7.5,14.7-15.4,13.3Z"/>
            <line class="st7" x1="55.5" y1="228.1" x2="65.2" y2="218.9"/>
            <path class="st3" d="M56.1,228.5s-3.9.6-7.4-2.6c-2.1-1.9-8-12.7-4.2-14.2,4.2-1.6,13.8,9,11.6,16.7Z"/>
            <line class="st7" x1="56.1" y1="228.5" x2="47.9" y2="217.9"/>
          </g>
        </g>
      </g>
      <g>
        <line class="st12" x1="104.3" y1="253.4" x2="86" y2="430.2"/>
        <g>
          <g>
            <line class="st12" x1="90" y1="396.5" x2="83.6" y2="386.1"/>
            <path class="st3" d="M85.6,389.2s1-3.8-1.8-7.6c-1.7-2.3-11.8-9.3-13.6-5.6-2,4,7.5,14.7,15.4,13.2Z"/>
            <line class="st7" x1="85.6" y1="389.2" x2="76.4" y2="380.4"/>
          </g>
          <g>
            <line class="st12" x1="95.1" y1="347.4" x2="88.7" y2="337"/>
            <path class="st3" d="M90.7,340.2s1-3.8-1.8-7.6c-1.7-2.3-11.8-9.3-13.6-5.6-2,4,7.5,14.7,15.4,13.2Z"/>
            <line class="st7" x1="90.7" y1="340.2" x2="81.5" y2="331.4"/>
          </g>
          <g>
            <line class="st12" x1="93" y1="367.5" x2="86.7" y2="357.1"/>
            <path class="st3" d="M88.6,360.3s1-3.8-1.8-7.6c-1.7-2.3-11.8-9.3-13.6-5.6-2,4,7.5,14.7,15.4,13.2Z"/>
            <line class="st7" x1="88.6" y1="360.3" x2="79.5" y2="351.5"/>
          </g>
          <g>
            <line class="st12" x1="98.5" y1="314.8" x2="92.1" y2="304.4"/>
            <path class="st3" d="M94.1,307.5s1-3.8-1.8-7.6c-1.7-2.3-11.8-9.3-13.6-5.6-2,4,7.5,14.7,15.4,13.2Z"/>
            <line class="st7" x1="94.1" y1="307.5" x2="84.9" y2="298.7"/>
          </g>
          <g>
            <line class="st12" x1="101.9" y1="282" x2="95.5" y2="271.6"/>
            <path class="st3" d="M97.5,274.7s1-3.8-1.8-7.6c-1.7-2.3-11.8-9.3-13.6-5.6-2,4,7.5,14.7,15.4,13.2Z"/>
            <line class="st7" x1="97.5" y1="274.7" x2="88.3" y2="265.9"/>
          </g>
          <g>
            <line class="st12" x1="91.1" y1="384.5" x2="99.4" y2="375.7"/>
            <path class="st3" d="M96.9,378.3s-.2-3.9,3.3-7.1c2.1-1.9,13.4-6.7,14.5-2.7,1.2,4.3-10.4,12.8-17.8,9.8Z"/>
            <line class="st7" x1="96.9" y1="378.3" x2="108.3" y2="371.3"/>
          </g>
          <g>
            <line class="st12" x1="96.6" y1="331.6" x2="104.9" y2="322.8"/>
            <path class="st3" d="M102.4,325.5s-.2-3.9,3.3-7.1c2.1-1.9,13.4-6.7,14.5-2.7,1.2,4.3-10.4,12.8-17.8,9.8Z"/>
            <line class="st7" x1="102.4" y1="325.5" x2="113.8" y2="318.4"/>
          </g>
          <g>
            <line class="st12" x1="99" y1="308.4" x2="107.3" y2="299.6"/>
            <path class="st3" d="M104.8,302.2s-.2-3.9,3.3-7.1c2.1-1.9,13.4-6.7,14.5-2.7,1.2,4.3-10.4,12.8-17.8,9.8Z"/>
            <line class="st7" x1="104.8" y1="302.2" x2="116.2" y2="295.1"/>
          </g>
          <g>
            <line class="st12" x1="102.5" y1="274.3" x2="110.9" y2="265.5"/>
            <path class="st3" d="M108.3,268.1s-.2-3.9,3.3-7.1c2.1-1.9,13.4-6.7,14.5-2.7,1.2,4.3-10.4,12.8-17.8,9.8Z"/>
            <line class="st7" x1="108.3" y1="268.1" x2="119.7" y2="261.1"/>
            <path class="st3" d="M104.3,252.4s-.2-3.9,3.3-7.1c2.1-1.9,13.4-6.7,14.5-2.7,1.2,4.3-10.4,12.8-17.8,9.8Z"/>
            <line class="st7" x1="104.3" y1="252.4" x2="115.7" y2="245.4"/>
            <path class="st3" d="M104.8,252.9s-3.9-.2-6.7-4c-1.7-2.3-5.2-14.1-1.2-14.7,4.4-.7,11.7,11.7,7.9,18.8Z"/>
            <line class="st7" x1="104.8" y1="252.9" x2="99" y2="240.9"/>
          </g>
        </g>
      </g>
      <line class="st12" x1="83.3" y1="181.5" x2="83.3" y2="405"/>
      <g>
        <g>
          <line class="st12" x1="83.5" y1="371.4" x2="76.1" y2="361.7"/>
          <path class="st3" d="M78.3,364.6s.6-3.9-2.6-7.4c-1.9-2.1-12.7-8-14.2-4.2-1.6,4.2,9,13.8,16.7,11.6Z"/>
          <line class="st7" x1="78.3" y1="364.6" x2="68.3" y2="356.8"/>
        </g>
        <g>
          <line class="st12" x1="83.5" y1="329.4" x2="76.1" y2="319.7"/>
          <path class="st3" d="M78.3,322.6s.6-3.9-2.6-7.4c-1.9-2.1-12.7-8-14.2-4.2-1.6,4.2,9,13.8,16.7,11.6Z"/>
          <line class="st7" x1="78.3" y1="322.6" x2="68.3" y2="314.8"/>
        </g>
        <g>
          <line class="st12" x1="83.5" y1="280" x2="76.1" y2="270.4"/>
          <path class="st3" d="M78.3,273.3s.6-3.9-2.6-7.4c-1.9-2.1-12.7-8-14.2-4.2-1.6,4.2,9,13.8,16.7,11.6Z"/>
          <line class="st7" x1="78.3" y1="273.3" x2="68.3" y2="265.5"/>
        </g>
        <g>
          <line class="st12" x1="83.5" y1="247.2" x2="76.1" y2="237.6"/>
          <path class="st3" d="M78.3,240.5s.6-3.9-2.6-7.4c-1.9-2.1-12.7-8-14.2-4.2-1.6,4.2,9,13.8,16.7,11.6Z"/>
          <line class="st7" x1="78.3" y1="240.5" x2="68.3" y2="232.7"/>
        </g>
        <g>
          <line class="st12" x1="83.5" y1="214.2" x2="76.1" y2="204.6"/>
          <path class="st3" d="M78.3,207.5s.6-3.9-2.6-7.4c-1.9-2.1-12.7-8-14.2-4.2-1.6,4.2,9,13.8,16.7,11.6Z"/>
          <line class="st7" x1="78.3" y1="207.5" x2="68.3" y2="199.7"/>
        </g>
        <g>
          <line class="st12" x1="83.3" y1="384.2" x2="90.7" y2="374.5"/>
          <path class="st3" d="M88.4,377.4s-.6-3.9,2.6-7.4c1.9-2.1,12.7-8,14.2-4.2,1.6,4.2-9,13.8-16.7,11.6Z"/>
          <line class="st7" x1="88.4" y1="377.4" x2="99" y2="369.2"/>
        </g>
        <g>
          <line class="st12" x1="83.3" y1="317.4" x2="90.7" y2="307.7"/>
          <path class="st3" d="M88.4,310.6s-.6-3.9,2.6-7.4c1.9-2.1,12.7-8,14.2-4.2,1.6,4.2-9,13.8-16.7,11.6Z"/>
          <line class="st7" x1="88.4" y1="310.6" x2="99" y2="302.4"/>
        </g>
        <g>
          <line class="st12" x1="83.3" y1="284.4" x2="90.7" y2="274.8"/>
          <path class="st3" d="M88.4,277.7s-.6-3.9,2.6-7.4c1.9-2.1,12.7-8,14.2-4.2,1.6,4.2-9,13.8-16.7,11.6Z"/>
          <line class="st7" x1="88.4" y1="277.7" x2="99" y2="269.5"/>
        </g>
        <g>
          <line class="st12" x1="83.3" y1="240.8" x2="90.7" y2="231.2"/>
          <path class="st3" d="M88.4,234.1s-.6-3.9,2.6-7.4c1.9-2.1,12.7-8,14.2-4.2,1.6,4.2-9,13.8-16.7,11.6Z"/>
          <line class="st7" x1="88.4" y1="234.1" x2="99" y2="225.9"/>
        </g>
        <g>
          <line class="st12" x1="83.3" y1="206.6" x2="90.7" y2="196.9"/>
          <path class="st3" d="M88.4,199.8s-.6-3.9,2.6-7.4c1.9-2.1,12.7-8,14.2-4.2,1.6,4.2-9,13.8-16.7,11.6Z"/>
          <line class="st7" x1="88.4" y1="199.8" x2="99" y2="191.6"/>
          <path class="st3" d="M82.9,184.6s-.6-3.9,2.6-7.4c1.9-2.1,12.7-8,14.2-4.2,1.6,4.2-9,13.8-16.7,11.6Z"/>
          <line class="st7" x1="82.9" y1="184.6" x2="93.4" y2="176.4"/>
          <path class="st3" d="M83.4,185.1s-3.9.2-7.1-3.3c-1.9-2.1-6.7-13.4-2.7-14.5,4.3-1.2,12.8,10.4,9.8,17.9Z"/>
          <line class="st7" x1="83.4" y1="185.1" x2="76.3" y2="173.7"/>
        </g>
      </g>
      <polygon class="st1" points="92.5 462.9 68.8 462.9 65.8 403.1 95.4 403.1 92.5 462.9"/>
    </g>
  </g>
  <g id="Device">
    <g>
      <polygon class="st4" points="306.3 220 379.3 220 362.3 282.6 289.3 282.6 306.3 220"/>
      <polygon class="st2" points="308.4 222.3 376 222.3 360.2 280.3 292.7 280.3 308.4 222.3"/>
      <g>
        <g>
          <path class="st13" d="M324.8,262.2l4.1-15.2h1.7l-3.6,13.6h4.3l-.4,1.5h-6Z"/>
          <path class="st13" d="M335,250.7c.6-2.3,2.2-3.8,4.5-3.8s3.1,1.5,2.5,3.8l-2.1,7.8c-.6,2.3-2.2,3.8-4.5,3.8s-3.1-1.5-2.4-3.8l2.1-7.8ZM334.6,258.6c-.4,1.4,0,2.2,1.2,2.2s2-.8,2.4-2.2l2.1-8c.4-1.4,0-2.2-1.2-2.2s-2,.8-2.4,2.2l-2.1,8Z"/>
          <path class="st13" d="M350.3,250.7l-.3,1.3h-1.6l.4-1.4c.4-1.4,0-2.2-1.2-2.2s-2,.8-2.4,2.2l-2.1,8c-.4,1.4,0,2.2,1.2,2.2s2-.8,2.4-2.2l.8-3h-1.6l.4-1.5h3.2l-1.2,4.5c-.6,2.3-2.1,3.8-4.4,3.8s-3-1.5-2.4-3.8l2.1-7.8c.6-2.3,2.1-3.8,4.4-3.8,2.3,0,3,1.5,2.4,3.8Z"/>
          <path class="st13" d="M351.8,250.7c.6-2.3,2.2-3.8,4.5-3.8s3.1,1.5,2.5,3.8l-2.1,7.8c-.6,2.3-2.2,3.8-4.5,3.8s-3.1-1.5-2.4-3.8l2.1-7.8ZM351.3,258.6c-.4,1.4,0,2.2,1.2,2.2s2-.8,2.4-2.2l2.1-8c.4-1.4,0-2.2-1.2-2.2s-2,.8-2.4,2.2l-2.1,8Z"/>
        </g>
        <path class="st10" d="M326.6,247.9c-.1-3.4-.9-9.8-4.7-14.7-5.4-7.1-15.3,2.6-11.2,14.6.6,1.7,1.4,3.1,2.4,4.3"/>
        <path class="st10" d="M317,255.9s-14.4,2.2-11.4,7.5c5.3,9.2,14,.8,17.7-3.5"/>
        <path class="st9" d="M323.6,243.3c1.6,4.4,1.3,8.5-.8,9.3s-5-2.2-6.6-6.5c-1.6-4.4-1.3-8.5.8-9.3,2-.8,5,2.2,6.6,6.5Z"/>
        <path class="st9" d="M309.1,263.6c.5,1.3,3.1,1.6,5.7.6,2.7-1,4.4-2.9,3.9-4.2-.5-1.3-3.1-1.6-5.7-.6-2.7,1-4.4,2.9-3.9,4.2Z"/>
        <path class="st10" d="M331,235.6s2.9,7.4-2.3,13.9c0,0,.9-4.8-1.2-11"/>
      </g>
      <rect class="st4" x="260" y="279.3" width="102.3" height="3.3"/>
      <rect class="st8" x="315.3" y="279.3" width="47" height="3.3"/>
    </g>
  </g>
  <g id="Table">
    <g>
      <g>
        <rect class="st2" x="227.3" y="287.9" width="5.5" height="174.6"/>
        <rect class="st5" x="222.6" y="287.9" width="4.7" height="174.6"/>
      </g>
      <g>
        <rect class="st2" x="368.2" y="379.3" width="5.5" height="83.2"/>
        <rect class="st5" x="363.5" y="379.3" width="4.7" height="83.2"/>
      </g>
      <g>
        <g>
          <rect class="st2" x="427.1" y="379.3" width="5.5" height="83.2"/>
          <rect class="st5" x="422.4" y="379.3" width="4.7" height="83.2"/>
        </g>
        <g>
          <rect class="st5" x="313.7" y="289.6" width="53.7" height="94.4"/>
          <rect class="st2" x="367.3" y="289.6" width="70.7" height="94.4"/>
          <polygon class="st0" points="367.3 289.6 313.7 289.6 313.7 294.2 367.3 294.2 438 294.2 438 289.6 367.3 289.6"/>
          <g>
            <rect class="st2" x="318.2" y="295" width="45.8" height="22"/>
            <rect class="st13" x="335.1" y="304" width="12.1" height="4.2"/>
          </g>
          <g>
            <rect class="st2" x="318.2" y="325.4" width="45.8" height="22"/>
            <rect class="st13" x="335.1" y="333.9" width="12.1" height="4.2"/>
          </g>
          <g>
            <rect class="st2" x="318.2" y="355.8" width="45.8" height="22"/>
            <rect class="st13" x="335.1" y="363.9" width="12.1" height="4.2"/>
          </g>
        </g>
        <g>
          <rect class="st5" x="215" y="285.5" width="230.3" height="5.5"/>
          <rect class="st2" x="375.8" y="285.5" width="69.5" height="5.5"/>
        </g>
      </g>
    </g>
  </g>
  <g id="Character">
    <g>
      <g>
        <path class="st2" d="M234.5,341.4s6.9,4.8,17,34.1c3.4,9.8,22.4,62.4,23.4,66.1,1,3.7,3,8,6,8s14-14,12.7-15.7-7.7-8.3-7.7-8.3c0,0-3.8-42.6-4.4-54.6s2.1-26.5-4.3-36.1c-6.3-9.7-34.3.3-34.3.3l-8.4,6.2Z"/>
        <g>
          <path class="st9" d="M289,425.5s-2.7,1.3-2.3,4.3c.3,3,3.3,7,3.3,7,0,0-6.3,5-9.7,5.3-3.3.3-7,1-7,2s2.7,2.7,4.3,6.3c1.7,3.7,5.3,9.3,6.3,10.7,1,1.3,1.7,2.3,5.3,1.3,3.7-1,11.7-8.3,16-11.3s17.3-5,19.7-6.7c2.3-1.7,9.7-12.3,6.3-14.3-3.3-2-4.3.3-8.3,1.3s-15.7-.3-22-1.7c-6.3-1.3-8.3-1.7-8.3-1.7l-3.7-2.7Z"/>
          <path class="st2" d="M283.4,460.4c.2.3.4.6.5.8,1,1.3,1.7,2.3,5.3,1.3,3.7-1,11.7-8.3,16-11.3s17.3-5,19.7-6.7c2.3-1.7,9.7-12.3,6.3-14.3-.6-.3-1.1-.5-1.5-.7,0,.2.1.4.2.7,1,4-2.3,8-5.3,11s-13,2.3-24,8c-7.7,4-14.1,8.7-17.2,11.2Z"/>
        </g>
        <path class="st0" d="M283.1,392.2c-.7-8.8-1.4-17-1.6-21.2-.7-12,2.1-26.5-4.3-36.1-6.3-9.7-34.3.3-34.3.3l-8.4,6.2s6.9,4.8,17,34.1c1.3,3.7,4.9,13.7,8.9,24.9l22.7-8.2Z"/>
      </g>
      <g>
        <g>
          <path class="st2" d="M266.8,170.4s1.5,3.9,1.2,7.3c-.3,3.3-3.3,4.8-3.6,3.9-.3-.9-.3-3.3-.3-4.5v-1.2s-.6,1.2-2.7,3.3-3.3,1.5-4.2,1.5-1.2-3,.3-5.1c1.5-2.1,6.4-7,9.4-5.1Z"/>
          <path class="st2" d="M273.7,178.2c-3-1.8-7.6,4.5-14.5,3-.9-.2-1.2-1.5.3-4.5,1.5-3,6.4-5.4,8.8-7.3,2.4-1.8,4.2-3.3,4.2-5.4s-5.4,1.2-7,2.4c-.7.6-3.2,1.8-5.7,3.1-.4,0-.8,0-1.3,0-2.7.2-6.8.6-8.4,2-2.1,1.8-3.2,7.9-3.7,10.3-1.3,1.9-2.5,3.7-3.2,4.8-2.1,3.3-44.8,34.5-44.8,34.5l3,26.6,48.4-55s1.2-1.2,4.5-2.4c3.3-1.2,7.9-2.1,11.8-4.2,3.9-2.1,4.2-2.4,8.5-5.1,2.1-1.3.7-1.7-.9-2.7Z"/>
          <path class="st9" d="M222.9,203c-11.8,8.9-24.4,18.1-24.4,18.1l3,26.6,29.7-33.8-8.3-10.9Z"/>
        </g>
        <g>
          <path class="st2" d="M208,303.7s21.3-1,52.3,4,42.6,10.3,41.7,16.3c-3.8,24.3-60.6,104.5-60.6,104.5l1,11.3s-2,2.7-9,3-15.7-9.7-15.7-9.7c0,0,7.8-8.1,10.8-17.8,3-9.7,27.1-72,27.1-72,0,0-31.7,7-66.7.7s19-40.3,19-40.3Z"/>
          <path class="st0" d="M260.3,307.7c-31-5-52.3-4-52.3-4,0,0-54,34-19,40.3s66.7-.7,66.7-.7c0,0-10,26-18,47l23.5,9c16.8-25.5,38.5-60.6,40.8-75.4.9-6-10.7-11.3-41.7-16.3Z"/>
          <g>
            <path class="st9" d="M241.4,428.5s-2,.7-3,3-1.7,4.7-1.7,4.7c0,0-6.3-1.3-10.7-3.3-4.3-2-7.3-4-7.3-4,0,0-3,.3-3,2.3s-.3,5.7-1.7,9c-.9,2.1-2.7,6.9-3.9,10-.6,1.6.3,3.3,2,3.6,5.3,1.2,16.4,3.7,25.9,6.7,13,4,27.3,2,29,1.7,1.7-.3,8.3-4.3,5.3-7s-20.7-9.7-24.3-14.3c-3.7-4.7-6.7-12.3-6.7-12.3Z"/>
            <path class="st2" d="M271.1,454.2c0,3.3-1.7,6.6-7,6.6s-14.7-.7-28-6c-10.5-4.2-20.8-6.8-24.7-7.6-.4,1.1-.8,2.1-1.2,3-.6,1.6.3,3.3,2,3.6,5.3,1.2,16.4,3.7,25.9,6.7,13,4,27.3,2,29,1.7,1.7-.3,8.3-4.3,5.3-7-.3-.3-.8-.6-1.3-.9Z"/>
          </g>
        </g>
        <g>
          <path class="st9" d="M140.7,226s-3.6,28.7-3.3,34.2,4.2,52.3,5.1,62.6c.9,10.3,5.1,19.4,12.7,21.2s27.2,4.5,35.7,2.4c8.5-2.1,17.5-21.2,20.6-28.4,3-7.3,5.1-11.8,4.2-13.3-.9-1.5-4.8-4.8-4.8-4.8,0,0-7.6-55-9.4-69.3-1.8-14.2-.9-15.4-7.6-20.9-6.7-5.4-41.1-10-53.2,16.3Z"/>
          <path class="st10" d="M189.1,326.3c-1.1.8-2.2,1.6-3.4,2.4"/>
          <path class="st10" d="M209,302s-6.4,12.6-17.1,21.9"/>
          <path class="st10" d="M204.3,302.7s-10.3,9.7-20.7,15.7"/>
        </g>
        <g>
          <g>
            <path class="st2" d="M212.6,135.6s3,6.4,3.9,10.9c.9,4.5,1.2,8.8,3.3,9.7s6,1.2,5.4,3.6c-.6,2.4-4.5,6.4-4.5,6.4,0,0,.9,14.5.6,17.2-.3,2.7-16.3,2.7-17.2,2.7s-10,21.5-10,21.5l-25.4-12.7,4.8-15.7s-7.9-15.1-8.5-21.8c-.6-6.7,14.8-18.8,23.6-21.5,8.8-2.7,23.9-.3,23.9-.3Z"/>
            <polygon class="st0" points="204.2 186.1 196.1 183.8 199.1 195.6 204.2 186.1"/>
            <path class="st13" d="M215.6,152.7c.4,1.7.2,3.2-.4,3.4-.6.2-1.5-1.1-1.9-2.8-.4-1.7-.2-3.2.4-3.4.7-.2,1.5,1.1,1.9,2.8Z"/>
            <path class="st10" d="M210.5,168.9s3.6,2.7,7,1.5"/>
          </g>
          <path class="st0" d="M211.1,129.8s4.2,7.6,1.2,12.4c-3,4.8-10.3,7-14.2,11.5-3.9,4.5-6,12.4-7.6,13-1.5.6-6-8.5-8.8-7.9s-7.3,7-3.3,13.6,10.9,5.7,10.9,5.7c0,0-10.9,5.7-13,5.7s-8.5-3.6-11.5-7-13.9-13.3-14.5-21.5,10.3-18.4,10.3-18.4c0,0-13-.9-9.7-5.7,3.3-4.8,15.1-7.9,15.1-7.9,0,0-2.1-7.6.9-9.1s21.5,4.5,21.5,4.5c0,0-5.1-6.7,2.1-7,7.3-.3,19.7,8.8,20.6,17.8Z"/>
          <g>
            <line class="st10" x1="187.1" y1="162.7" x2="225.6" y2="147.1"/>
            <path class="st10" d="M215.6,144.9c.8-.3,1.7-.5,2.6-.5,3.8,0,6.8,3,6.8,6.8s-1.4,4.8-3.5,5.9"/>
          </g>
        </g>
        <g>
          <path class="st9" d="M201.5,216s-.3-8.8-2.7-11.2c-2.4-2.4-20.3-12.4-28.4-14.5-8.2-2.1-16.6.9-22.1,2.7s-9.1,7-11.2,18.1c-2.1,11.2-2.4,18.1,2.1,18.8,4.5.6,10.9-13,25.1-15.7s27.2-.3,30.2,1.2c3,1.5,7,.6,7,.6Z"/>
          <path class="st10" d="M155.5,206.8c-2.7,1-4.6,1.7-4.6,1.7"/>
          <path class="st10" d="M201.5,216s-19.1-10.6-26-12.7c-3.6-1.1-10.2.3-15.6,2"/>
        </g>
        <g>
          <path class="st2" d="M291.3,265.2s-1,6.3-2.2,7-1.1-5.8-1.1-5.8c0,0-1.4,3.8-2.3,4.7-.9.9-.4-3.9-.4-3.9l1-4.5,4.9,2.5Z"/>
          <path class="st2" d="M278.5,259l9.3.2s2.5.4,2.8,1.8,1.8,4.6,1.8,4.6l-14.4-4.2.5-2.3Z"/>
          <path class="st2" d="M281.8,261.9s13-1.8,13.3-.7c.3.8,1.3,7.9,1.5,10.2,0,.4-.4.5-.7.3l-3.6-6.3-9.8.7s-2.8-2.5-.7-4.2Z"/>
          <path class="st9" d="M174.3,222.7s-8.1,6-5.3,20.7,22.4,55,24.2,58.5,9.5,3.9,13,2.8c3.5-1,65.8-25.9,65.8-25.9,0,0,6.7-1.8,7.7-3.2s7.7-8.8,7.7-8.8c0,0,10.5,1.4,13,.7,2.5-.7-2.5-1.4-4.9-2.1-1.9-.5-12.3-4.6-17-6.5-1.4-.5-2.9-.2-4,.9-3.3,3.4-10.3,10.5-11.6,11.6-1.8,1.4-51.1,9.8-51.1,9.8,0,0-11.6-54.3-16.1-58.8-4.6-4.6-12.6-3.5-12.6-3.5"/>
          <path class="st2" d="M239.4,291.7c16.4-6.5,32.6-12.9,32.6-12.9,0,0,6.7-1.8,7.7-3.2,1-1.4,7.7-8.8,7.7-8.8,0,0,10.5,1.4,13,.7,2.5-.7-2.5-1.4-4.9-2.1-1.9-.5-12.3-4.6-17-6.5-1.4-.5-2.9-.2-4,.9-3.3,3.4-10.3,10.5-11.6,11.6-.9.7-14.7,3.4-27.7,5.7l4.3,14.6Z"/>
        </g>
      </g>
    </g>
    <g>
      <g>
        <path class="st6" d="M130,360.6l-15.2,101.3c-.2,1,1.3,1.4,1.6.4l23-100.1-9.3-1.7Z"/>
        <path class="st6" d="M152.8,361.2l6.6,100.5c0,1,1.6,1,1.7,0l1.2-101.3-9.4.8Z"/>
        <path class="st6" d="M175.1,362.8l18.2,98.7c.2,1,1.7.8,1.6-.3l-10.6-100.6-9.2,2.2Z"/>
        <path class="st6" d="M210.3,361.9l14.9,99.4c.2,1,1.7.8,1.6-.2l-7.2-101-9.3,1.8Z"/>
      </g>
      <path class="st2" d="M196.1,341.7s-17.5-5.8-25.7-26.8c-8.2-21-21.6-57.2-30.9-61.8-9.3-4.7-27.4,4.1-28.6,37.9-1.2,33.8,1.6,59,9.1,67.3,6.7,7.3,18,16.7,57.3,17.3,35.1.6,49.5-12.8,54.3-17.3,5-4.7,12.8-14.2,6.4-14.2-6.4,0-33.8,0-42-2.3Z"/>
    </g>
  </g>
  <g id="Butterfly">
    <g>
      <g>
        <path class="st2" d="M276.9,134s-6.8-8-16.3-9.5c-9.5-1.5-10.1,12.3,2,18.4,5.2,2.6,10.9,1.7,10.9,1.7,0,0-9.7,11.4-3.4,13.3,14.1,4.1,11-17.5,11-17.5l-4.2-6.5Z"/>
        <path class="st2" d="M279.2,133.5s-4-9.7-1-18.9,14.9-2.9,14.8,10.6c0,5.8-2.7,10-2.7,10,0,0,15.3-3.2,13.4,3-4.3,14.2-20.6,1.9-20.6,1.9l-3.8-6.7Z"/>
        <path class="st13" d="M284.5,145.6c-.3,0-.7-.2-.9-.5l-9.5-15.9c-.3-.5-.1-1.1.3-1.4.5-.3,1.1-.1,1.4.3l9.5,15.9c.3.5.1,1.1-.3,1.4-.2,0-.3.1-.5.1Z"/>
        <path class="st10" d="M275.8,130.5s-3.4-7.2-9.5-8"/>
        <path class="st10" d="M275.9,128.1s-2-5.9-.5-9.7"/>
      </g>
      <path class="st9" d="M269.8,134.9c-.4,1.8-3,2.7-5.9,2.1s-4.9-2.5-4.6-4.3c.4-1.8,3-2.7,5.9-2.1,2.9.6,4.9,2.5,4.6,4.3Z"/>
      <path class="st9" d="M276.9,147.3c1,.7,1,2.6-.1,4.2s-2.8,2.5-3.8,1.8c-1-.7-1-2.6.1-4.2,1.1-1.7,2.8-2.5,3.8-1.8Z"/>
      <path class="st9" d="M297.8,138.9c0,1.2-1.6,2.2-3.6,2.3-2,0-3.6-.9-3.6-2.2,0-1.2,1.6-2.2,3.6-2.3,2,0,3.6.9,3.6,2.2Z"/>
      <path class="st9" d="M285.5,128.5c-1.8.2-3.5-2-3.8-4.9-.3-2.9.9-5.4,2.7-5.6s3.5,2,3.8,4.9c.3,2.9-.9,5.4-2.7,5.6Z"/>
    </g>
  </g>
  <g id="Floor">
    <line class="st10" x1="24.2" y1="462.9" x2="489.9" y2="462.9"/>
  </g>
</svg>